<?xml version="1.0" encoding="UTF-8" standalone="no"?>
<svg
   xmlns:dc="http://purl.org/dc/elements/1.1/"
   xmlns:cc="http://creativecommons.org/ns#"
   xmlns:rdf="http://www.w3.org/1999/02/22-rdf-syntax-ns#"
   xmlns:svg="http://www.w3.org/2000/svg"
   xmlns="http://www.w3.org/2000/svg"
   viewBox="0 0 346.66666 154.66667"
   height="154.66667"
   width="346.66666"
   xml:space="preserve"
   id="svg2"
   version="1.1"><metadata
     id="metadata8"><rdf:RDF><cc:Work
         rdf:about=""><dc:format>image/svg+xml</dc:format><dc:type
           rdf:resource="http://purl.org/dc/dcmitype/StillImage" /></cc:Work></rdf:RDF></metadata><defs
     id="defs6"><clipPath
       id="clipPath20"
       clipPathUnits="userSpaceOnUse"><path
         id="path18"
         d="m 0,23.1992 h 723.203 v 1113.6 H 0 Z" /></clipPath><clipPath
       id="clipPath34"
       clipPathUnits="userSpaceOnUse"><path
         id="path32"
         d="M 1080.33,419.867 H 2144.19 V 772.66 H 1080.33 Z" /></clipPath><clipPath
       id="clipPath44"
       clipPathUnits="userSpaceOnUse"><path
         id="path42"
         d="M 1080.33,0 H 2599.99 V 382.48 H 1080.33 Z" /></clipPath></defs><g
     transform="matrix(1.3333333,0,0,-1.3333333,0,154.66667)"
     id="g10"><g
       transform="scale(0.1)"
       id="g12"><g
         id="g14"><g
           clip-path="url(#clipPath20)"
           id="g16"><path
             id="path22"
             style="fill:#f05742;fill-opacity:1;fill-rule:nonzero;stroke:none"
             d="m 390.621,1136.8 c 10.629,-12.55 22.567,-36.84 29.231,-65.19 0.707,-2.83 0.992,-5.66 1.523,-8.48 h -0.605 c -31.356,-43.45 -83.047,-69.013 -138,-68.306 C 262.184,941.336 208.473,901.035 141.473,888.84 91.1641,885.055 49.4609,852.285 37.875,807.527 35.0391,796.57 34.1211,785.219 35.1836,773.941 c 0.3516,5.731 1.0625,11.172 2.3359,15.629 13.3946,45.496 57.1524,77.739 108.8435,79.93 69.09,10.324 125.492,49.883 148.383,104.078 56.332,-2.547 93.676,18.488 127.266,62.012 -14.278,-73.465 -106.86,-87.996 -106.86,-87.996 0,0 -36.066,-63.774 -89.531,-84.031 C 183.316,847.547 133.785,837.754 107,823.117 66.2539,800.813 53.1445,770.691 51.375,728.16 c 6.375,-9.754 15.0938,-18.133 24.7656,-25.664 1.8399,3.817 5.0313,6.859 8.9258,8.555 31.2146,14.847 60.0196,31.961 85.9566,50.906 3.188,2.406 7.086,3.645 11.055,3.574 7.652,-0.179 14.313,-5.199 16.543,-12.515 2.234,-7.286 -0.461,-15.168 -6.695,-19.586 -25.262,-18.418 -53.145,-34.825 -82.696,-49.492 39.047,-13.649 83.723,-7.036 116.176,18.734 l 4.43,4.312 c 63.066,-27.043 140.766,-22.093 196.992,11.172 l 1.949,1.098 c 9.707,5.902 3.403,2.332 3.403,2.332 l -2.02,-2.898 C 395.297,673.613 392.957,637.023 265.125,604.887 137.258,572.789 88.9648,434.559 114.758,322.563 h 37.168 c -25.758,111.96 22.535,232.125 150.367,264.261 127.867,32.098 130.062,86.719 164.961,131.793 l 1.809,2.617 32.171,15.2 C 467.609,482.605 182.004,659.367 182.004,322.637 l 0.215,-16.973 h 313.769 v 17.785 h 76.532 c 5.316,11.559 10.097,23.297 14.738,35.106 l 122.484,0.351 c 48.785,249.27 -39.258,549.129 -197.172,688.164 l -4.25,3.12 c -23.879,41.29 -64.84,73.7 -117.734,86.47 z m 20.582,-13.79 c 60.695,-47.3 75.61,-111.89 18.602,-142.678 l -9.532,-2.477 c 42.907,84.105 -2.23,130.165 -9.07,145.155 z M 366.422,906.727 c 0.426,0 0.848,0 1.273,0 h 35.43 c 6.344,0.035 12.227,-3.325 15.414,-8.801 3.188,-5.481 3.188,-12.27 0,-17.75 -3.187,-5.477 -9.07,-8.836 -15.414,-8.801 h -35.43 c -9.742,-0.32 -17.925,7.316 -18.281,17.039 -0.355,9.723 7.262,17.926 17.008,18.313 z M 145.832,270.453 c -38.973,0 -70.8632,-31.816 -70.8632,-70.703 0,-12.937 3.8281,-24.887 9.957,-35.352 H 75.2891 C 35.2539,164.398 0,136.152 0,97.9688 V 79.9063 L 0.0703125,70.2188 0,58.6953 V 23.1992 H 35.4297 V 58.6953 L 35.5,70.2188 35.4297,79.9063 v 18.0625 c 0,38.1832 35.2891,66.4652 75.2893,66.4652 h 9.672 c -6.411,10.675 -9.848,22.871 -9.953,35.351 0,38.817 31.886,70.703 70.859,70.703 h -35.43 z m 70.859,0 c -38.972,0 -70.859,-31.816 -70.859,-70.703 0,-12.937 3.824,-24.887 9.957,-35.352 h -9.641 c -40.035,0 -75.2886,-28.246 -75.2886,-66.4292 V 79.9063 L 70.9297,70.2188 70.8594,58.6953 V 23.1992 H 673.176 v 74.6992 c 0,38.1836 -35.36,66.4296 -75.36,66.4296 h -7.261 c 6.41,10.676 9.847,22.906 9.918,35.352 0,38.886 -31.887,70.703 -70.86,70.703 H 216.727" /></g></g><path
         id="path24"
         style="fill:#f05742;fill-opacity:1;fill-rule:nonzero;stroke:none"
         d="m 890.605,0 h 22.3164 V 1160 H 890.605 Z" /><path
         id="path26"
         style="fill:#f05742;fill-opacity:1;fill-rule:nonzero;stroke:none"
         d="m 1080.33,1116.03 v 0 0 c 0,0.55 0,1.1 0,1.65 v 0 0 c 0,5.03 0.7,10.37 2.1,16 v 0 0 c 1.95,6.33 4.95,11.49 9,15.48 v 0 0 c 4.19,4.23 18.86,6.88 43.98,7.92 v 0 0 c 12.64,0.5 25.73,0.75 39.27,0.75 v 0 0 c 13.49,0 27.46,-0.25 41.89,-0.75 v 0 0 c 27.38,-0.54 54.24,-1.77 80.57,-3.66 v 0 0 c 25.13,-1.6 39.37,-3.02 42.72,-4.26 v 0 0 c 3.69,-1.05 6.49,-3.77 8.39,-8.15 v 0 0 c 2.3,-3.84 3.54,-8.55 3.75,-14.13 v 0 0 c 0.14,-1.1 0.22,-2.17 0.22,-3.22 v 0 0 c 0,-4.54 -0.95,-9.45 -2.85,-14.73 v 0 0 c -1.6,-6.28 -4.77,-12.59 -9.51,-18.92 v 0 0 c -3.5,-5.08 -14.04,-8.67 -31.63,-10.77 v 0 0 c -19.34,-1.74 -39.27,-2.61 -59.8,-2.61 v 0 0 c -1.05,-4.19 -2.38,-8.65 -3.98,-13.39 v 0 0 c -1.04,-2.99 -2.27,-7.65 -3.67,-13.98 v 0 0 c -0.9,-4.69 -1.35,-8.7 -1.35,-12.04 v 0 0 c 0.55,-3.89 1.53,-6.53 2.93,-7.93 v 0 0 c 3.14,-2.99 7.62,-4.21 13.41,-3.66 v 0 0 c 6.34,1.05 12.69,1.84 19.03,2.39 v 0 0 c 3.3,0.5 6.55,0.75 9.75,0.75 v 0 0 c 3.15,0 6.12,-0.25 8.91,-0.75 v 0 0 c 5.8,-0.55 10.02,-3.89 12.67,-10.02 v 0 0 c 0.5,-1.25 0.75,-2.74 0.75,-4.48 v 0 0 c 0,-7.33 -3.6,-20.122 -10.79,-38.368 v 0 0 c -9.99,-24.523 -20.71,-48.004 -32.15,-70.437 v 0 0 c -12.44,-24.379 -24.98,-46.285 -37.62,-65.727 v 0 0 c -12.14,-19.293 -20.84,-28.941 -26.08,-28.941 v 0 0 c -5.1,0.351 -7.65,5.433 -7.65,15.254 v 0 0 c 0,9.273 0.7,20.765 2.1,34.472 v 0 0 c 1.95,15.407 3.1,27.743 3.45,37.016 v 0 0 c 0.15,2.84 0.23,5.484 0.23,7.926 v 0 0 c 0,7.527 -1.23,12.512 -3.68,14.957 v 0 0 c -3.49,3.34 -7.62,4.211 -12.36,2.617 v 0 0 c -4.25,-1.199 -9.1,-3.019 -14.54,-5.461 v 0 0 c -3.15,-1.246 -8.07,-2.914 -14.76,-5.008 v 0 0 c -4.75,-1.047 -9.05,0.446 -12.89,4.485 v 0 0 c -3,2.941 -4.5,9.246 -4.5,18.918 v 0 0 c 0,2.242 0.1,4.785 0.3,7.629 v 0 0 c 1.05,15.054 2.97,30.808 5.77,47.257 v 0 0 c 3.15,16.301 7.27,33.401 12.36,51.301 v 0 0 c 4.95,15.95 9.87,28.73 14.77,38.36 v 0 0 c -12.99,1.04 -30.45,2.71 -52.39,5.01 v 0 0 c -14.43,2.09 -22.78,3.83 -25.02,5.23 v 0 0 c -3,1.94 -5.55,5.36 -7.65,10.24 v 0 0 c -1.75,5.44 -2.9,10.7 -3.45,15.78 z M 1405.2,829.266 v 0 0 c -0.55,1.195 -0.82,3.214 -0.82,6.058 v 0 0 c 0,9.121 2.65,26.895 7.94,53.313 v 0 0 c 7.2,36.293 17.11,73.554 29.75,111.793 v 0 0 c 12.99,39.23 28.63,75.22 46.92,107.98 v 0 0 c 17.88,32.25 36.67,48.38 56.35,48.38 v 0 0 c 0.2,0 0.37,0 0.53,0 v 0 0 c 19.83,0 38.44,-16.38 55.83,-49.13 v 0 0 c 17.78,-32.95 32.65,-69.42 44.59,-109.402 v 0 0 c 12.79,-40.824 22.18,-78.664 28.17,-113.508 v 0 0 c 4.55,-25.625 6.83,-43.52 6.83,-53.691 v 0 0 c 0,-3.637 -0.25,-6.254 -0.75,-7.848 v 0 0 c -1.25,-3.145 -5.58,-5.586 -12.97,-7.328 v 0 0 c -6.84,-1.598 -14.56,-2.668 -23.16,-3.219 v 0 0 c -1.05,0 -2.02,0 -2.92,0 v 0 0 c -6.99,0 -14.01,0.524 -21.06,1.57 v 0 0 c -7.19,1.598 -11.76,3.891 -13.71,6.879 v 0 0 c -2.45,4.188 -4.55,8.926 -6.3,14.211 v 0 0 c -1.6,5.93 -2.99,11.09 -4.19,15.477 v 0 0 c -1.25,5.781 -2.33,10.695 -3.23,14.73 v 0 0 c -1.2,5.785 -2.14,9.473 -2.84,11.067 v 0 0 c -1.6,3.492 -6.8,6.035 -15.59,7.629 v 0 0 c -8.25,1.394 -16.66,2.093 -25.26,2.093 v 0 0 c -0.9,0 -1.87,0 -2.92,0 v 0 0 c -9.99,0 -19.46,-0.523 -28.4,-1.57 v 0 0 c -9.14,-1.047 -14.69,-2.469 -16.64,-4.262 v 0 0 c -1.75,-1.398 -3.77,-4.886 -6.07,-10.468 v 0 0 c -2.1,-5.633 -3.85,-11.067 -5.24,-16.301 v 0 0 c -0.56,-1.946 -1.3,-4.785 -2.25,-8.528 v 0 0 c -0.95,-3.785 -1.7,-6.652 -2.25,-8.597 v 0 0 c -1.4,-5.781 -2.55,-9.797 -3.45,-12.039 v 0 0 c -1.55,-4.586 -6.27,-7.828 -14.16,-9.719 v 0 0 c -5.3,-1.25 -11.09,-1.871 -17.39,-1.871 v 0 0 c -2.15,0 -4.34,0.074 -6.59,0.223 v 0 0 c -7.6,0.55 -15.69,2.218 -24.28,5.011 v 0 0 c -7.2,2.793 -12.02,6.481 -14.47,11.067 z m 102.75,117.25 v 0 0 c 1.6,-2.645 5.72,-4.762 12.36,-6.356 v 0 0 c 7.4,-1.398 14.42,-2.094 21.06,-2.094 v 0 0 c 7.4,0 14.61,0.696 21.66,2.094 v 0 0 c 6.49,1.445 10.86,3.637 13.11,6.578 v 0 0 c 0.35,0.7 0.53,1.844 0.53,3.442 v 0 0 c 0,3.34 -0.88,8.699 -2.63,16.074 v 0 0 c -2.09,9.973 -5.16,21.887 -9.21,35.746 v 0 0 c -3.7,12.61 -7.65,24.18 -11.85,34.7 v 0 0 c -4.19,10.31 -7.61,15.47 -10.26,15.47 v 0 0 c -2.65,0 -6.34,-5.16 -11.09,-15.47 v 0 0 c -4.05,-9.82 -8.25,-21.32 -12.59,-34.48 v 0 0 c -4.75,-15.95 -8.02,-27.865 -9.82,-35.74 v 0 0 c -1.55,-6.832 -2.32,-11.988 -2.32,-15.48 v 0 0 c 0,-2.141 0.35,-3.637 1.05,-4.484 z m 232.39,39.703 v 0 0 c 0,8.926 0,17.771 0,26.551 v 0 0 c 0,26.62 0.17,53.51 0.52,80.68 v 0 0 c 1.05,32.75 3.15,50.72 6.3,53.91 v 0 0 c 3.14,3.14 10.86,5.51 23.16,7.1 v 0 0 c 12.34,1.55 25,2.6 37.99,3.15 v 0 0 c 17.54,0.69 34.65,1.04 51.33,1.04 v 0 0 c 12.99,-1.74 25.56,-4.81 37.7,-9.19 v 0 0 c 11.94,-4.19 22.31,-9.73 31.1,-16.6 v 0 0 c 8.79,-6.63 15.81,-15.21 21.06,-25.73 v 0 0 c 5.29,-10.17 8.12,-22.35 8.47,-36.56 v 0 0 c 0,-1.4 0,-2.79 0,-4.19 v 0 0 c 0,-10.67 -1.77,-19.86 -5.33,-27.59 v 0 0 c -3.69,-8.93 -7.71,-16.1 -12.06,-21.54 v 0 0 c -4.24,-5.43 -8.22,-9.92 -11.92,-13.46 v 0 0 c -3.14,-3.14 -4.44,-5.681 -3.89,-7.626 v 0 0 c 0.5,-1.891 4.09,-4.859 10.79,-8.898 v 0 0 c 6.85,-3.688 13.96,-8.946 21.36,-15.778 v 0 0 c 7.69,-6.679 14.71,-15.277 21.06,-25.797 v 0 0 c 6.29,-9.968 9.44,-22.582 9.44,-37.836 v 0 0 c 0,-14.207 -3.25,-27.269 -9.74,-39.183 v 0 0 c -5.95,-11.363 -14.82,-21.434 -26.61,-30.207 v 0 0 c -11.24,-8.227 -24.93,-14.707 -41.07,-19.442 v 0 0 c -16.18,-4.589 -33.57,-6.882 -52.15,-6.882 v 0 0 c -23.89,0 -40.05,0.175 -48.49,0.523 v 0 0 c -10.19,0.551 -22.06,1.695 -35.6,3.441 v 0 0 c -11.04,1.747 -18.16,4.387 -21.36,7.926 v 0 0 c -2.94,3.489 -5.67,21.785 -8.17,54.887 v 0 0 c -2.09,33.148 -3.39,68.918 -3.89,107.301 z m 72.39,65.731 v 0 0 c 0.2,-8.28 1.27,-16 3.22,-23.18 v 0 0 c 2.25,-6.83 5.32,-10.5 9.22,-10.99 v 0 0 c 2.95,-0.35 5.92,-0.63 8.92,-0.83 v 0 0 c 4.6,0 9.09,0.53 13.49,1.57 v 0 0 c 7.55,1.75 14.46,4.91 20.76,9.5 v 0 0 c 6.84,5.09 11.94,10.77 15.29,17.05 v 0 0 c 4.24,7.38 6.37,15.45 6.37,24.23 v 0 0 c 0,5.93 -2.48,10.84 -7.42,14.73 v 0 0 c -4.4,3.84 -10.27,6.9 -17.62,9.2 v 0 0 c -6.49,1.89 -13.18,2.84 -20.08,2.84 v 0 0 c -0.5,0 -1.02,0 -1.57,0 v 0 0 c -7.55,0 -13.77,-1.57 -18.66,-4.71 v 0 0 c -4.05,-1.95 -7.12,-7.03 -9.22,-15.26 v 0 0 c -1.8,-8.42 -2.7,-16.47 -2.7,-24.15 z M 1817,914.961 v 0 0 c 0.15,-7.379 1.1,-15.008 2.85,-22.883 v 0 0 c 2.15,-6.828 4.87,-11.293 8.17,-13.387 v 0 0 c 4.25,-2.093 10.94,-3.14 20.09,-3.14 v 0 0 c 9.64,0.5 18.93,2.144 27.87,4.937 v 0 0 c 9.34,3.34 17.51,8 24.51,13.981 v 0 0 c 6.14,5.785 9.22,12.613 9.22,20.492 v 0 0 c 0,0.894 0,1.769 0,2.617 v 0 0 c -0.5,6.481 -3.92,12.36 -10.27,17.645 v 0 0 c -6.49,5.586 -13.79,10.047 -21.89,13.386 v 0 0 c -8.39,3.688 -17.16,5.782 -26.3,6.282 v 0 0 c -2.1,0.199 -4.05,0.297 -5.84,0.297 v 0 0 c -6.3,0 -12.09,-1.321 -17.39,-3.961 v 0 0 c -3.5,-1.399 -6.3,-5.957 -8.39,-13.684 v 0 0 c -1.75,-7.527 -2.63,-15.055 -2.63,-22.582 z m 223.4,51.519 v 0 0 c -0.2,9.821 -0.3,19.54 -0.3,29.161 v 0 0 c 0,28.769 0.63,55.929 1.88,81.509 v 0 0 c 1.59,34.55 3.17,54.71 4.72,60.49 v 0 0 c 1.6,5.93 5.99,10.5 13.19,13.68 v 0 0 c 7.89,3.84 15.81,6.29 23.75,7.33 v 0 0 c 5.1,0.9 10,1.35 14.69,1.35 v 0 0 c 3.7,0 7.15,-0.27 10.34,-0.82 v 0 0 c 8.05,-0.55 13.67,-2.39 16.87,-5.54 v 0 0 c 2.79,-2.79 4.19,-14.08 4.19,-33.87 v 0 0 c 0,-3.19 0,-6.53 0,-10.02 v 0 0 c 0,-29.11 -0.35,-57.43 -1.05,-84.95 v 0 0 c -0.2,-8.72 -0.42,-22.63 -0.67,-41.722 v 0 0 c -0.25,-19.14 -0.47,-33.523 -0.67,-43.144 v 0 0 c 0,-25.774 1.32,-40.504 3.96,-44.192 v 0 0 c 3,-3.687 8.63,-5.781 16.87,-6.281 v 0 0 c 2.45,-0.199 4.99,-0.301 7.64,-0.301 v 0 0 c 6.49,0 13.26,0.352 20.31,1.047 v 0 0 c 6.84,0.75 16.94,1.645 30.28,2.691 v 0 0 c 6.29,0.7 11.74,1.047 16.33,1.047 v 0 0 c 3,0 5.55,-0.172 7.65,-0.523 v 0 0 c 4.75,-0.547 8.69,-3.262 11.84,-8.149 v 0 0 c 3.69,-4.734 6.32,-10.617 7.87,-17.648 v 0 0 c 1.95,-6.48 3.09,-13.582 3.45,-21.309 v 0 0 c 0.19,-1.398 0.3,-2.695 0.3,-3.89 v 0 0 c 0,-5.434 -0.98,-10.442 -2.93,-15.031 v 0 0 c -2.1,-5.082 -11.24,-8.922 -27.43,-11.512 v 0 0 c -15.78,-2.145 -33.87,-3.465 -54.25,-3.965 v 0 0 c -9.85,-0.348 -19.77,-0.523 -29.76,-0.523 v 0 0 c -10.04,0 -20.06,0.175 -30.05,0.523 v 0 0 c -12.99,0.348 -27.3,0.523 -42.94,0.523 v 0 0 c -8.94,0 -15.53,15.852 -19.78,47.559 v 0 0 c -3.65,31.754 -5.75,67.246 -6.3,106.48 z m 266.87,11.813 v 0 0 c -0.15,13.16 -0.23,26.327 -0.23,39.487 v 0 0 c 0,21.88 0.25,43.59 0.75,65.13 v 0 0 c 1.05,32.95 3.07,51.89 6.07,56.82 v 0 0 c 3,4.74 15.21,8.41 36.65,11 v 0 0 c 21.93,2.64 45.74,4.23 71.42,4.78 v 0 0 c 8.04,0.15 15.86,0.23 23.45,0.23 v 0 0 c 17.74,0 34.15,-0.43 49.24,-1.28 v 0 0 c 22.28,-1.04 35.8,-2.98 40.54,-5.83 v 0 0 c 5.3,-2.94 8.72,-7.75 10.27,-14.43 v 0 0 c 1.6,-4.74 2.4,-9.82 2.4,-15.25 v 0 0 c 0,-1.4 -0.08,-2.89 -0.23,-4.49 v 0 0 c 0,-6.48 -0.97,-12.86 -2.92,-19.14 v 0 0 c -1.6,-5.43 -3.52,-9.2 -5.77,-11.29 v 0 0 c -2.65,-2.3 -9.77,-3.44 -21.36,-3.44 v 0 0 c -1.6,0 -3.17,0 -4.72,0 v 0 0 c -14.44,0.5 -29.83,1.02 -46.16,1.57 v 0 0 c -14.94,0.84 -28.63,1.27 -41.07,1.27 v 0 0 c -2.1,0 -4.12,0 -6.07,0 v 0 0 c -1.95,0 -3.8,0 -5.55,0 v 0 0 c -11.24,0 -18.78,-1.39 -22.63,-4.19 v 0 0 c -2.8,-2.24 -5.1,-5.9 -6.89,-10.99 v 0 0 c -1.4,-5.29 -2.1,-10.72 -2.1,-16.3 v 0 0 c 0,-5.43 0.7,-10.97 2.1,-16.6 v 0 0 c 1.59,-5.08 3.54,-8.95 5.84,-11.59 v 0 0 c 3.5,-3.49 9.29,-5.66 17.39,-6.51 v 0 0 c 3.85,-0.35 7.84,-0.52 11.99,-0.52 v 0 0 c 4.1,0 8.34,0.17 12.74,0.52 v 0 0 c 8.99,0.5 17.44,0.75 25.33,0.75 v 0 0 c 1.05,0 2,0 2.85,0 v 0 0 c 6.69,0 11.71,-1.05 15.06,-3.14 v 0 0 c 2.65,-1.59 4.5,-5.29 5.55,-11.07 v 0 0 c 1.2,-4.384 1.79,-9.02 1.79,-13.907 v 0 0 c 0,-1.594 -0.07,-3.262 -0.22,-5.008 v 0 0 c 0,-6.281 -0.98,-12.586 -2.92,-18.918 v 0 0 c -1.4,-5.633 -3.85,-9.496 -7.35,-11.59 v 0 0 c -3.19,-1.894 -8.92,-2.844 -17.16,-2.844 v 0 0 c -7.39,0.153 -15.56,0.399 -24.51,0.75 v 0 0 c -2.99,0.2 -5.96,0.297 -8.91,0.297 v 0 0 c -5.1,0 -10.29,-0.273 -15.59,-0.82 v 0 0 c -7.34,-0.5 -12.87,-2.594 -16.56,-6.281 v 0 0 c -1.75,-2.446 -3.17,-5.86 -4.28,-10.246 v 0 0 c -0.7,-5.633 -0.77,-10.719 -0.22,-15.254 v 0 0 c 0.35,-4.387 1.5,-9.645 3.45,-15.778 v 0 0 c 1.9,-5.086 4.27,-8.949 7.12,-11.589 v 0 0 c 2.79,-2.293 10.06,-3.442 21.81,-3.442 v 0 0 c 11.94,0 25.03,0.278 39.27,0.824 v 0 0 c 11.93,0.348 22.58,0.524 31.92,0.524 v 0 0 c 3.15,0 6.12,0 8.92,0 v 0 0 c 0.9,0 1.69,0 2.39,0 v 0 0 c 11.6,0 19.66,-1.223 24.21,-3.664 v 0 0 c 3.35,-1.594 6.07,-5.285 8.17,-11.067 v 0 0 c 2.45,-5.234 3.77,-11.191 3.97,-17.871 v 0 0 c 0.15,-1.945 0.23,-3.863 0.23,-5.758 v 0 0 c 0,-4.386 -0.43,-8.875 -1.28,-13.46 v 0 0 c -1.05,-6.133 -3.17,-11.192 -6.37,-15.18 v 0 0 c -3.99,-5.086 -17.16,-8.699 -39.49,-10.844 v 0 0 c -17.74,-1.543 -36.1,-2.316 -55.08,-2.316 v 0 0 c -5.1,0 -10.27,0.074 -15.52,0.222 v 0 0 c -24.78,0.551 -47.71,1.871 -68.79,3.965 v 0 0 c -20.53,2.641 -31.85,5.633 -33.95,8.973 v 0 0 c -1.95,3.488 -3.87,20.836 -5.77,52.043 v 0 0 c -1.6,31.508 -2.67,65.754 -3.22,102.742" /><g
         id="g28"><g
           clip-path="url(#clipPath34)"
           id="g30"><path
             id="path36"
             style="fill:#f05742;fill-opacity:1;fill-rule:nonzero;stroke:none"
             d="m 1080.33,597.535 v 0 0 c 0,8.973 0,17.922 0,26.844 v 0 0 c 0,26.969 0.18,54.387 0.53,82.254 v 0 0 c 1.05,33.301 3.14,51.547 6.29,54.738 v 0 0 c 3.15,3.137 10.87,5.508 23.16,7.102 v 0 0 c 12.29,1.547 24.96,2.593 37.99,3.14 v 0 0 c 11.75,0.7 28.86,1.047 51.34,1.047 v 0 0 c 13.19,-1.594 25.75,-4.66 37.7,-9.195 v 0 0 c 11.93,-3.891 22.3,-9.422 31.09,-16.602 v 0 0 c 8.6,-6.281 15.62,-14.855 21.06,-25.722 v 0 0 c 5.25,-10.172 8.07,-22.36 8.47,-36.567 v 0 0 c 0,-1.394 0,-2.793 0,-4.187 v 0 0 c 0,-10.52 -1.77,-20.067 -5.32,-28.641 v 0 0 c -3.5,-9.469 -7.54,-17.273 -12.14,-23.402 v 0 0 c -4,-5.985 -7.94,-11.067 -11.84,-15.254 v 0 0 c -3.15,-3.692 -4.45,-6.582 -3.9,-8.676 v 0 0 c 0.5,-1.945 4.1,-4.934 10.79,-8.973 v 0 0 c 6.85,-3.64 13.94,-8.898 21.29,-15.777 v 0 0 c 7.39,-6.133 14.44,-14.707 21.13,-25.723 v 0 0 c 6.3,-10.019 9.44,-22.632 9.44,-37.836 v 0 0 c 0,-14.21 -3.24,-27.269 -9.74,-39.183 v 0 0 c -6.14,-11.766 -15.01,-21.859 -26.6,-30.285 v 0 0 c -10.69,-8.028 -24.38,-14.508 -41.07,-19.442 v 0 0 c -16.19,-4.535 -33.57,-6.804 -52.16,-6.804 v 0 0 c -15.49,0 -31.65,0.175 -48.48,0.523 v 0 0 c -13.34,0.899 -25.21,2.043 -35.6,3.441 v 0 0 c -11.05,1.543 -18.16,4.161 -21.36,7.852 v 0 0 c -2.95,3.488 -5.67,22.156 -8.17,56.004 v 0 0 c -2.1,33.652 -3.4,70.09 -3.9,109.324 z m 63.7,61.317 v 0 0 c 0,-1.247 0,-2.395 0,-3.442 v 0 0 c 0,-6.48 0.9,-10.691 2.7,-12.637 v 0 0 c 2.1,-2.093 4.45,-2.964 7.04,-2.617 v 0 0 c 3.55,1.047 6.2,1.922 7.95,2.617 v 0 0 c 2.65,1.598 5.27,2.645 7.87,3.141 v 0 0 c 2.64,1.047 4.95,0.625 6.89,-1.269 v 0 0 c 1.75,-1.598 2.35,-5.907 1.8,-12.938 v 0 0 c -0.7,-9.273 -1.3,-16 -1.8,-20.187 v 0 0 c -0.35,-4.04 -0.7,-10.344 -1.05,-18.918 v 0 0 c 0.35,-5.434 1.75,-8.153 4.2,-8.153 v 0 0 c 2.45,0 7.19,5.332 14.24,16.004 v 0 0 c 6.64,10.367 13.49,22.383 20.53,36.039 v 0 0 c 7.75,15.254 13.64,28.141 17.69,38.66 v 0 0 c 3.85,10.121 5.77,17.2 5.77,21.239 v 0 0 c 0,1.047 -0.1,1.843 -0.3,2.39 v 0 0 c -1.2,3.141 -3.47,4.985 -6.82,5.535 v 0 0 c -2.65,0.348 -6.07,0.247 -10.27,-0.3 v 0 0 c -1.25,-0.149 -2.99,-0.348 -5.24,-0.598 v 0 0 c -2.3,-0.301 -4.07,-0.523 -5.32,-0.672 v 0 0 c -2.95,-0.199 -5.4,0.496 -7.35,2.094 v 0 0 c -1.4,1.742 -1.85,4.113 -1.35,7.101 v 0 0 c 0.2,0.5 1.18,3.813 2.93,9.946 v 0 0 c 1.4,3.34 2.27,6.855 2.62,10.543 v 0 0 c 0.7,3.34 0.17,6.058 -1.58,8.152 v 0 0 c -2.44,2.793 -6.32,4.188 -11.61,4.188 v 0 0 c -2.1,0 -4.47,-0.25 -7.12,-0.75 v 0 0 c -8.04,-1.047 -15.06,-4.387 -21.06,-10.02 v 0 0 c -2.65,-2.641 -5.62,-8.598 -8.92,-17.871 v 0 0 c -2.65,-8.426 -5.37,-18.07 -8.17,-28.938 v 0 0 c -1.94,-9.273 -3.37,-18.718 -4.27,-28.339 z M 1157,523.207 v 0 0 c 0.15,-7.379 1.1,-15.004 2.84,-22.883 v 0 0 c 2.15,-6.828 4.87,-11.312 8.18,-13.457 v 0 0 c 4.24,-2.094 10.91,-3.14 20,-3.14 v 0 0 c 9.69,0.347 19.02,2.019 27.96,5.007 v 0 0 c 9.29,3.141 17.46,7.778 24.5,13.911 v 0 0 c 6.15,5.781 9.22,12.636 9.22,20.562 v 0 0 c 0,0.848 0,1.719 0,2.617 v 0 0 c -0.5,6.481 -3.92,12.34 -10.27,17.574 v 0 0 c -6.49,5.981 -13.79,10.469 -21.88,13.457 v 0 0 c -8.44,3.641 -17.21,5.735 -26.3,6.282 v 0 0 c -2.15,0.152 -4.1,0.226 -5.85,0.226 v 0 0 c -6.29,0 -12.09,-1.297 -17.38,-3.89 v 0 0 c -3.5,-1.395 -6.3,-5.957 -8.4,-13.684 v 0 0 c -1.75,-7.527 -2.62,-15.055 -2.62,-22.582 z m 223.4,69.918 v 0 0 c 0,23.629 3.59,46.059 10.79,67.297 v 0 0 c 7.19,20.687 16.94,38.984 29.22,54.887 v 0 0 c 13,16.148 27.58,28.613 43.77,37.386 v 0 0 c 16.69,9.075 34.52,13.61 53.51,13.61 v 0 0 c 19.28,0 37.02,-4.535 53.21,-13.61 v 0 0 c 16.68,-8.773 31.17,-21.238 43.46,-37.386 v 0 0 c 12.44,-15.555 22.28,-33.95 29.53,-55.188 v 0 0 c 7.19,-20.687 10.79,-42.496 10.79,-65.426 v 0 0 c 0,-0.55 0,-1.074 0,-1.57 v 0 0 c 0,-24.031 -3.7,-46.562 -11.09,-67.598 v 0 0 c -7.2,-21.187 -17.04,-39.582 -29.53,-55.187 v 0 0 c -12.09,-15.801 -26.58,-28.164 -43.46,-37.086 v 0 0 c -16.34,-8.926 -33.97,-13.387 -52.91,-13.387 v 0 0 c -18.99,0 -36.92,4.461 -53.81,13.387 v 0 0 c -16.49,8.922 -31.05,21.285 -43.69,37.086 v 0 0 c -12.14,15.754 -21.88,34.148 -29.23,55.187 v 0 0 c -7.04,21.582 -10.56,44.118 -10.56,67.598 z m 75.09,0 v 0 0 c 0,-13.711 1.57,-26.598 4.72,-38.66 v 0 0 c 3.15,-11.914 7.54,-22.434 13.19,-31.555 v 0 0 c 5.8,-8.926 12.39,-16.027 19.78,-21.312 v 0 0 c 8.05,-5.086 16.21,-7.629 24.51,-7.629 v 0 0 c 8.59,0 16.56,2.644 23.9,7.926 v 0 0 c 7.75,5.234 14.27,12.242 19.57,21.015 v 0 0 c 5.79,8.922 10.26,19.442 13.41,31.555 v 0 0 c 3.35,11.715 5.02,24.601 5.02,38.66 v 0 0 c 0,14.008 -1.67,26.867 -5.02,38.582 v 0 0 c -3.15,11.766 -7.62,22.211 -13.41,31.332 v 0 0 c -5.65,8.922 -12.25,16.027 -19.79,21.313 v 0 0 c -7.39,5.082 -15.04,7.625 -22.93,7.625 v 0 0 c -0.35,0 -0.6,0 -0.75,0 v 0 0 c -8.44,0 -16.61,-2.641 -24.51,-7.926 v 0 0 c -7.24,-4.887 -13.84,-11.891 -19.78,-21.012 v 0 0 c -5.65,-9.121 -10.04,-19.641 -13.19,-31.555 v 0 0 c -3.15,-12.113 -4.72,-24.902 -4.72,-38.359 z m 251.35,86.215 v 0 0 c 0.85,8.226 3.3,16.277 7.34,24.152 v 0 0 c 4.95,8.625 10.67,16.352 17.16,23.18 v 0 0 c 7.2,7.18 15.62,13.562 25.26,19.144 v 0 0 c 9.84,5.782 20.21,9.719 31.1,11.813 v 0 0 c 9.84,2.144 18.89,3.219 27.13,3.219 v 0 0 c 2.1,0 4.22,-0.102 6.37,-0.301 v 0 0 c 10.49,-0.348 19.53,-1.496 27.13,-3.442 v 0 0 c 7.19,-1.394 14.04,-3.562 20.53,-6.503 v 0 0 c 5.95,-2.493 10.34,-4.61 13.19,-6.356 v 0 0 c 3.15,-2.094 4.8,-6.383 4.95,-12.863 v 0 0 c 0.2,-1.395 0.3,-2.715 0.3,-3.961 v 0 0 c 0,-5.086 -0.8,-10.52 -2.4,-16.301 v 0 0 c -1.2,-6.633 -3.47,-12.937 -6.82,-18.918 v 0 0 c -2.65,-5.433 -5.72,-8.328 -9.22,-8.676 v 0 0 c -2.3,-0.148 -5.99,0.375 -11.09,1.571 v 0 0 c -5.59,1.945 -10.94,3.441 -16.04,4.488 v 0 0 c -5.79,1.594 -11.86,2.641 -18.21,3.141 v 0 0 c -1.89,0.347 -3.74,0.523 -5.54,0.523 v 0 0 c -4.05,0 -7.9,-0.699 -11.54,-2.094 v 0 0 c -9.69,-3.14 -16.12,-8.476 -19.26,-16.004 v 0 0 c -2.1,-5.632 -3.15,-10.644 -3.15,-15.031 v 0 0 c 0,-1.543 0.17,-3.113 0.52,-4.711 v 0 0 c 2.1,-10.367 9.05,-18.965 20.84,-25.797 v 0 0 c 10.34,-5.433 23.15,-12.961 38.44,-22.582 v 0 0 c 13.89,-8.574 26.28,-19.789 37.17,-33.648 v 0 0 c 11.04,-13.66 16.57,-33.028 16.57,-58.102 v 0 0 c 0,-15.402 -2.73,-28.64 -8.18,-39.707 v 0 0 c -5.09,-10.668 -12.21,-20.039 -21.35,-28.113 v 0 0 c -8.95,-7.527 -18.86,-13.41 -29.75,-17.648 v 0 0 c -10.34,-3.84 -21.66,-6.629 -33.95,-8.375 v 0 0 c -7.05,-0.348 -13.39,-0.524 -19.04,-0.524 v 0 0 c -9.09,0.348 -16.36,0.524 -21.8,0.524 v 0 0 c -2.65,0.199 -6.35,0.5 -11.1,0.898 v 0 0 c -4.74,0.449 -8.26,0.773 -10.56,0.973 v 0 0 c -6.15,0.847 -12.12,1.894 -17.91,3.14 v 0 0 c -5.1,1.047 -8.52,5.258 -10.27,12.637 v 0 0 c -0.85,4.883 -1.27,10.117 -1.27,15.703 v 0 0 c 0,2.492 0.07,4.957 0.22,7.402 v 0 0 c 1.05,8.575 2.72,16.102 5.02,22.582 v 0 0 c 2.65,6.829 5.8,10.243 9.44,10.243 v 0 0 c 3.55,0 7.7,-0.246 12.45,-0.746 v 0 0 c 5.59,-0.547 10.94,-1.071 16.03,-1.571 v 0 0 c 1.95,-0.199 4.85,-0.426 8.7,-0.672 v 0 0 c 3.89,-0.25 6.79,-0.476 8.69,-0.675 v 0 0 c 6.49,0 12.11,0.351 16.86,1.046 v 0 0 c 8.79,1.047 15.39,4.04 19.79,8.973 v 0 0 c 4.19,4.391 6.29,11.395 6.29,21.016 v 0 0 c 0,1.047 0,2.191 0,3.437 v 0 0 c -0.35,15.754 -6.67,27.043 -18.96,33.875 v 0 0 c -9.29,5.434 -22.46,12.887 -39.49,22.356 v 0 0 c -13.54,7.726 -26.01,18.597 -37.4,32.605 v 0 0 c -9.14,11.762 -13.71,28.762 -13.71,50.996 v 0 0 c 0,4.387 0.17,8.949 0.52,13.684 z m 246.55,0 v 0 0 c 0.91,8.226 3.38,16.277 7.43,24.152 v 0 0 c 4.89,8.625 10.59,16.352 17.08,23.18 v 0 0 c 7.2,7.18 15.64,13.562 25.33,19.144 v 0 0 c 9.84,5.782 20.21,9.719 31.1,11.813 v 0 0 c 9.85,2.144 18.89,3.219 27.13,3.219 v 0 0 c 2.1,0 4.2,-0.102 6.3,-0.301 v 0 0 c 10.54,-0.348 19.58,-1.496 27.12,-3.442 v 0 0 c 7.2,-1.394 14.04,-3.562 20.54,-6.503 v 0 0 c 5.99,-2.493 10.39,-4.61 13.19,-6.356 v 0 0 c 3.19,-2.094 4.87,-6.383 5.02,-12.863 v 0 0 c 0.2,-1.395 0.3,-2.715 0.3,-3.961 v 0 0 c 0,-5.086 -0.8,-10.52 -2.4,-16.301 v 0 0 c -1.25,-6.633 -3.52,-12.937 -6.82,-18.918 v 0 0 c -2.65,-5.433 -5.75,-8.328 -9.29,-8.676 v 0 0 c -2.25,-0.148 -5.92,0.375 -11.02,1.571 v 0 0 c -5.64,1.945 -11.01,3.441 -16.11,4.488 v 0 0 c -5.79,1.594 -11.84,2.641 -18.14,3.141 v 0 0 c -1.94,0.347 -3.79,0.523 -5.54,0.523 v 0 0 c -4.05,0 -7.92,-0.699 -11.62,-2.094 v 0 0 c -9.64,-3.14 -16.03,-8.476 -19.18,-16.004 v 0 0 c -2.15,-5.632 -3.22,-10.644 -3.22,-15.031 v 0 0 c 0,-1.543 0.17,-3.113 0.52,-4.711 v 0 0 c 2.15,-10.367 9.09,-18.965 20.83,-25.797 v 0 0 c 10.4,-5.433 23.24,-12.961 38.52,-22.582 v 0 0 c 13.84,-8.574 26.21,-19.789 37.1,-33.648 v 0 0 c 11.09,-13.66 16.64,-33.028 16.64,-58.102 v 0 0 c 0,-15.402 -2.73,-28.64 -8.17,-39.707 v 0 0 c -5.1,-10.668 -12.22,-20.039 -21.36,-28.113 v 0 0 c -8.94,-7.527 -18.86,-13.41 -29.75,-17.648 v 0 0 c -10.39,-3.84 -21.74,-6.629 -34.03,-8.375 v 0 0 c -6.99,-0.348 -13.31,-0.524 -18.96,-0.524 v 0 0 c -9.14,0.348 -16.43,0.524 -21.88,0.524 v 0 0 c -2.6,0.199 -6.27,0.5 -11.01,0.898 v 0 0 c -4.75,0.449 -8.27,0.773 -10.57,0.973 v 0 0 c -6.15,0.847 -12.12,1.894 -17.91,3.14 v 0 0 c -5.1,1.047 -8.52,5.258 -10.27,12.637 v 0 0 c -0.9,4.883 -1.35,10.117 -1.35,15.703 v 0 0 c 0,2.492 0.1,4.957 0.3,7.402 v 0 0 c 1.05,8.575 2.72,16.102 5.02,22.582 v 0 0 c 2.6,6.829 5.75,10.243 9.44,10.243 v 0 0 c 3.5,0 7.62,-0.246 12.37,-0.746 v 0 0 c 5.64,-0.547 11.02,-1.071 16.11,-1.571 v 0 0 c 1.9,-0.199 4.8,-0.426 8.7,-0.672 v 0 0 c 3.84,-0.25 6.74,-0.476 8.69,-0.675 v 0 0 c 6.49,0 12.11,0.351 16.86,1.046 v 0 0 c 8.79,1.047 15.36,4.04 19.71,8.973 v 0 0 c 4.25,4.391 6.37,11.395 6.37,21.016 v 0 0 c 0,1.047 0,2.191 0,3.437 v 0 0 c -0.35,15.754 -6.67,27.043 -18.96,33.875 v 0 0 c -9.34,5.434 -22.53,12.887 -39.57,22.356 v 0 0 c -13.49,7.726 -25.95,18.597 -37.39,32.605 v 0 0 c -9.15,11.762 -13.72,28.762 -13.72,50.996 v 0 0 c 0,4.387 0.18,8.949 0.52,13.684" /></g></g><g
         id="g38"><g
           clip-path="url(#clipPath44)"
           id="g40"><path
             id="path46"
             style="fill:#f05742;fill-opacity:1;fill-rule:nonzero;stroke:none"
             d="m 1080.33,212.664 v 0 0 c 0,23.828 3.5,46.262 10.49,67.297 v 0 0 c 7.2,20.887 16.94,38.684 29.23,53.391 v 0 0 c 12.84,15.402 27.43,27.144 43.77,35.218 v 0 0 c 16.68,8.575 34.87,12.864 54.56,12.864 v 0 0 c 12.28,0 24.23,-2.719 35.82,-8.153 v 0 0 c 12.09,-5.234 22.98,-11.89 32.67,-19.965 v 0 0 c 10.34,-7.875 19.11,-16.726 26.31,-26.546 v 0 0 c 7.74,-9.27 13.11,-18.196 16.11,-26.77 v 0 0 c 2.1,-5.082 1.65,-10.344 -1.35,-15.777 v 0 0 c -2.6,-4.735 -6.62,-9.047 -12.07,-12.934 v 0 0 c -4.94,-3.293 -10.84,-6.082 -17.68,-8.375 v 0 0 c -4.2,-1.246 -8.15,-1.871 -11.84,-1.871 v 0 0 c -1.95,0 -3.9,0.176 -5.85,0.523 v 0 0 c -2.8,0.547 -5.25,2.145 -7.34,4.786 v 0 0 c -1.25,2.441 -2.75,4.785 -4.5,7.031 v 0 l -6.3,8.449 v 0 c -2.79,3.836 -6.04,7.25 -9.74,10.242 v 0 0 c -3.89,3.492 -8.64,6.309 -14.24,8.449 v 0 0 c -4.54,2.247 -10.09,3.368 -16.63,3.368 v 0 0 c -0.85,0 -1.73,0 -2.62,0 v 0 0 c -7.55,0 -15.09,-2.543 -22.64,-7.629 v 0 0 c -6.49,-4.188 -12.74,-10.668 -18.73,-19.442 v 0 0 c -5.25,-7.875 -9.45,-17.523 -12.59,-28.937 v 0 0 c -3,-10.121 -4.5,-21.762 -4.5,-34.922 v 0 0 c 0.35,-24.727 5.52,-45.836 15.51,-63.336 v 0 0 c 10.54,-16.848 23.38,-26.844 38.52,-29.984 v 0 0 c 5.45,-0.696 10.09,-1.145 13.94,-1.344 v 0 0 c 3.85,0.199 8.67,0.648 14.47,1.344 v 0 0 c 4.04,0.847 8.27,2.07 12.66,3.664 v 0 0 c 3.85,1.597 6.39,3.441 7.64,5.535 v 0 0 c 1.4,2.094 2.1,5.683 2.1,10.765 v 0 0 c 0.35,5.985 0.28,11.317 -0.22,16.004 v 0 0 c 0,7.379 -0.18,12.637 -0.53,15.778 v 0 0 c 0,4.734 0.53,7.902 1.58,9.496 v 0 0 c 1.89,3.14 5.67,5.508 11.31,7.105 v 0 0 c 5.8,1.742 11.84,2.789 18.14,3.141 v 0 0 c 1.8,0.199 3.65,0.297 5.55,0.297 v 0 0 c 4.24,0 8.64,-0.449 13.18,-1.344 v 0 0 c 6.15,-1.047 10.19,-2.793 12.14,-5.234 v 0 0 c 4.75,-5.434 8.17,-16.926 10.27,-34.473 v 0 0 c 2.45,-16.652 3.85,-34.973 4.2,-54.9609 v 0 0 c 0.2,-8.7227 0.3,-16.9493 0.3,-24.6758 v 0 0 c 0,-10.5195 -0.18,-20.2383 -0.53,-29.1641 v 0 0 c -0.55,-16.5 -1.62,-26.8437 -3.22,-31.0312 v 0 0 c -1.55,-4.23831 -5.5,-7.12894 -11.84,-8.67191 v 0 0 C 1319.89,0.625 1313.4,0 1306.36,0 v 0 0 c -6.85,0.199219 -13.17,0.996094 -18.97,2.39453 v 0 0 c -5.99,1.59375 -9.41,3.08985 -10.26,4.48438 v 0 0 c -1.4,3.83989 -2.38,6.55469 -2.92,8.15239 v 0 0 c -0.35,1.8945 -1.05,5.4804 -2.1,10.7656 v 0 0 c -0.2,3.4922 -0.9,6.9804 -2.1,10.4687 v 0 0 c -0.55,3.1914 -1.53,5.6602 -2.92,7.4024 v 0 0 c -1.75,1.7461 -4.3,2.6914 -7.65,2.8437 v 0 0 c -2.8,0.3985 -6.84,0.3242 -12.14,-0.2265 v 0 0 c -2.6,-0.1993 -7.32,-0.6485 -14.16,-1.3438 v 0 0 c -6.35,-0.3516 -10.84,-0.5234 -13.49,-0.5234 v 0 0 c -19.14,0 -37.4,4.1367 -54.78,12.4101 v 0 0 c -17.04,8.375 -31.8,20.0157 -44.29,34.9219 v 0 0 c -12.64,15.602 -22.56,33.398 -29.76,53.391 v 0 0 c -6.99,21.035 -10.49,43.543 -10.49,67.523 z m 110.39,25.496 v 0 0 c 1.2,2.293 2.85,3.442 4.95,3.442 v 0 0 c 2.65,0.199 5.12,-0.051 7.42,-0.75 v 0 0 c 3.49,-0.747 6.04,-1.293 7.64,-1.645 v 0 0 c 2.65,-0.496 4.5,-0.223 5.55,0.824 v 0 0 c 1.2,1.246 1.54,2.914 1.04,5.008 v 0 0 c -0.19,1.746 -0.64,4.188 -1.34,7.328 v 0 0 c -0.35,1.598 -0.7,4.141 -1.05,7.629 v 0 0 c 0,2.793 0.7,4.637 2.1,5.535 v 0 0 c 1.94,1.594 4.32,2.391 7.11,2.391 v 0 0 c 1.95,0 4.05,-0.348 6.3,-1.047 v 0 0 c 6.35,-1.594 11.09,-4.484 14.24,-8.672 v 0 0 c 1.6,-2.144 3.2,-6.707 4.8,-13.687 v 0 0 c 1.9,-7.375 3.12,-14.379 3.67,-21.012 v 0 0 c 0.7,-4.934 1.05,-9.594 1.05,-13.981 v 0 0 c 0,-2.293 -0.1,-4.488 -0.3,-6.582 v 0 0 c 0,-5.933 -0.78,-9.695 -2.33,-11.289 v 0 0 c -1.6,-1.199 -3.44,-1.547 -5.54,-1.047 v 0 0 c -1.05,0.547 -2.98,1.344 -5.77,2.391 v 0 0 c -2.15,1.399 -4,2.344 -5.55,2.844 v 0 0 c -1.25,1.047 -2.75,0.871 -4.5,-0.524 v 0 0 c -1.59,-1.046 -2.47,-4.015 -2.62,-8.898 v 0 -14.73 0 c 0.15,-4.391 -0.02,-8.95 -0.52,-13.688 v 0 0 c 0,-1.742 -0.28,-3.141 -0.83,-4.187 v 0 0 c -0.5,-0.696 -1.2,-1.047 -2.1,-1.047 v 0 0 c -0.14,0 -0.32,0 -0.52,0 v 0 0 c -1.95,0 -5.1,4.039 -9.44,12.117 v 0 0 c -4.4,8.375 -8.37,17.394 -11.92,27.066 v 0 0 c -2.94,7.879 -6.19,17.5 -9.74,28.864 v 0 0 c -1.55,6.332 -2.32,11.066 -2.32,14.207 v 0 0 c 0,1.398 0.17,2.445 0.52,3.14 z M 1394.34,52.8672 v 0 0 c -0.5,1.1953 -0.75,3.2148 -0.75,6.0547 v 0 0 c 0,9.125 2.62,26.8945 7.87,53.3161 v 0 0 c 7.19,36.293 17.11,73.555 29.75,111.789 v 0 0 c 13.04,39.235 28.67,75.227 46.91,107.977 v 0 0 c 17.93,32.254 36.75,48.383 56.43,48.383 v 0 0 c 0.15,0 0.33,0 0.52,0 v 0 0 c 19.84,0 38.45,-16.379 55.84,-49.129 v 0 0 c 17.73,-32.953 32.57,-69.418 44.51,-109.399 v 0 0 c 12.84,-40.828 22.23,-78.664 28.18,-113.507 v 0 0 c 4.6,-25.6254 6.89,-43.52 6.89,-53.6918 v 0 0 c 0,-3.6368 -0.27,-6.2539 -0.82,-7.8516 v 0 0 c -1.25,-3.1406 -5.54,-5.582 -12.89,-7.3281 v 0 0 c -6.85,-1.5938 -14.59,-2.6641 -23.23,-3.2149 v 0 0 c -1.05,0 -2,0 -2.85,0 v 0 0 c -7.04,0 -14.09,0.5235 -21.13,1.5703 v 0 0 c -7.2,1.5977 -11.75,3.8907 -13.64,6.8789 v 0 0 c -2.5,4.1875 -4.63,8.9258 -6.37,14.2071 v 0 0 c -1.55,5.9336 -2.95,11.0937 -4.2,15.4804 v 0 0 c -1.25,5.7813 -2.3,10.6915 -3.15,14.7305 v 0 0 c -1.25,5.7813 -2.22,9.4727 -2.92,11.0662 v 0 0 c -1.55,3.489 -6.72,6.031 -15.51,7.629 v 0 0 c -8.24,1.395 -16.69,2.094 -25.33,2.094 v 0 0 c -0.85,0 -1.8,0 -2.85,0 v 0 0 c -10.04,0 -19.53,-0.524 -28.48,-1.57 v 0 0 c -9.14,-1.047 -14.69,-2.469 -16.64,-4.262 v 0 0 c -1.74,-1.399 -3.74,-4.8869 -5.99,-10.4689 v 0 0 c -2.15,-5.6328 -3.92,-11.0703 -5.32,-16.3047 v 0 0 c -0.5,-1.9414 -1.25,-4.7851 -2.25,-8.5234 v 0 0 c -0.95,-3.7891 -1.7,-6.6524 -2.25,-8.5977 v 0 0 c -1.4,-5.7851 -2.52,-9.7969 -3.37,-12.039 v 0 0 c -1.6,-4.586 -6.34,-7.8282 -14.24,-9.7227 v 0 0 c -5.29,-1.2461 -11.09,-1.8672 -17.38,-1.8672 v 0 0 c -2.1,0 -4.3,0.0742 -6.6,0.2227 v 0 0 c -7.54,0.5507 -15.61,2.2187 -24.2,5.0117 v 0 0 c -7.25,2.789 -12.09,6.4805 -14.54,11.0664 z m 102.74,117.2498 v 0 0 c 1.6,-2.644 5.74,-4.762 12.44,-6.359 v 0 0 c 7.34,-1.395 14.36,-2.094 21.06,-2.094 v 0 0 c 7.34,0 14.54,0.699 21.58,2.094 v 0 0 c 6.5,1.445 10.89,3.64 13.19,6.582 v 0 0 c 0.35,0.699 0.53,1.844 0.53,3.441 v 0 0 c 0,3.34 -0.88,8.696 -2.63,16.074 v 0 0 c -2.09,9.973 -5.17,21.887 -9.21,35.743 v 0 0 c -3.7,12.613 -7.67,24.179 -11.92,34.699 v 0 0 c -4.2,10.316 -7.62,15.476 -10.27,15.476 v 0 0 c -2.6,0 -6.27,-5.16 -11.01,-15.476 v 0 0 c -4.05,-9.82 -8.27,-21.313 -12.67,-34.473 v 0 0 c -4.74,-15.953 -7.99,-27.867 -9.74,-35.742 v 0 0 c -1.6,-6.832 -2.4,-11.992 -2.4,-15.48 v 0 0 c 0,-2.145 0.35,-3.641 1.05,-4.485 z m 245.06,-69.168 v 0 0 c -0.2,11.067 -0.3,23.504 -0.3,37.313 v 0 0 c 0,20.886 0.17,44.988 0.52,72.308 v 0 0 c 0.9,42.969 2.05,79.438 3.45,109.395 v 0 0 c 1.95,33.801 3.87,52.121 5.77,54.961 v 0 0 c 1.95,2.094 5.74,3.914 11.39,5.461 v 0 0 c 5.1,1.394 11.67,2.093 19.71,2.093 v 0 0 c 7.54,0 14.49,-0.773 20.84,-2.32 v 0 0 c 6.49,-1.394 11.14,-3.34 13.93,-5.832 v 0 0 c 2.65,-2.094 6.8,-6.73 12.44,-13.906 v 0 0 c 5.8,-6.832 11.84,-14.184 18.14,-22.059 v 0 0 c 16.68,-20.492 27.3,-33.379 31.85,-38.66 v 0 0 c 6.89,-7.18 11.46,-10.769 13.71,-10.769 v 0 0 c 2.85,0 7.7,3.691 14.54,11.066 v 0 0 c 6.3,6.281 17.79,19.418 34.48,39.41 v 0 0 c 1.59,1.942 7.74,9.219 18.43,21.832 v 0 0 c 6.14,7.328 10.29,11.692 12.44,13.086 v 0 0 c 2.95,2.844 7.49,4.86 13.64,6.059 v 0 0 c 5.79,1.394 12.74,2.093 20.83,2.093 v 0 0 c 8.1,0 14.69,-0.699 19.79,-2.093 v 0 0 c 5.94,-1.399 9.79,-3.317 11.54,-5.758 v 0 0 c 2.15,-2.645 3.99,-21.211 5.54,-55.711 v 0 0 c 1.75,-32.102 2.9,-69.441 3.45,-112.012 v 0 0 c 0.35,-21.535 0.53,-42.996 0.53,-64.383 v 0 0 c 0,-16.152 -0.1,-32.203 -0.3,-48.1558 v 0 0 c -0.36,-34.3477 -1.4,-53.4414 -3.15,-57.2774 v 0 0 c -1.75,-0.8984 -4.47,-1.7695 -8.17,-2.6171 v 0 0 c -5.1,-0.6993 -10.97,-1.1485 -17.61,-1.3477 v 0 0 c -11.44,0.3516 -21.36,1.2227 -29.75,2.6172 v 0 0 c -9,1.5976 -14.27,3.7148 -15.82,6.3555 v 0 0 c -0.89,1.5468 -1.87,5.832 -2.92,12.8632 v 0 0 c -0.2,2.7891 -0.55,7.3516 -1.05,13.6836 v 0 0 c -0.55,6.2813 -0.9,10.4922 -1.05,12.6368 v 0 0 c -0.55,10.8671 -1.07,21.7107 -1.57,32.5277 v 0 0 c -0.35,14.207 -0.7,24.652 -1.05,31.332 v 0 0 c -0.55,14.355 -1.27,28.191 -2.17,41.5 v 0 0 c -0.5,11.066 -1.03,19.742 -1.58,26.023 v 0 0 c -0.5,6.481 -1.02,11.141 -1.57,13.981 v 0 0 c -0.15,2.793 -0.85,4.363 -2.1,4.71 v 0 0 c -1.55,0.551 -4.44,-0.847 -8.69,-4.187 v 0 0 c -3.35,-2.84 -8.97,-8.898 -16.86,-18.168 v 0 0 c -0.7,-0.848 -2.28,-2.691 -4.73,-5.535 v 0 0 c -2.44,-2.793 -4.46,-5.059 -6.07,-6.805 v 0 0 c -3.69,-4.187 -7.46,-8.226 -11.31,-12.113 v 0 0 c -2.65,-2.641 -6.07,-5.707 -10.27,-9.195 v 0 0 c -3.35,-2.446 -5.82,-3.664 -7.42,-3.664 v 0 0 c -1.55,0 -3.99,1.218 -7.34,3.664 v 0 0 c -0.7,0.695 -2.15,2.066 -4.35,4.109 v 0 0 c -2.2,1.996 -3.99,3.691 -5.39,5.086 v 0 0 c -2.3,2.441 -5.9,6.48 -10.8,12.113 v 0 0 c -3.54,4.535 -6.79,8.574 -9.74,12.113 v 0 0 c -7.04,8.727 -12.59,15.106 -16.63,19.145 v 0 0 c -3.35,3.687 -6.07,5.531 -8.17,5.531 v 0 0 c -1.05,0 -2.03,-0.422 -2.92,-1.269 v 0 0 c -1.55,-1.594 -2.85,-11.516 -3.9,-29.762 v 0 0 c -0.2,-4.387 -0.7,-15.379 -1.5,-32.977 v 0 0 c -0.75,-17.597 -1.4,-32.976 -1.95,-46.136 v 0 0 c -0.2,-4.387 -0.65,-12.961 -1.35,-25.723 v 0 0 c 0,-5.9804 -0.35,-14.2304 -1.05,-24.75 v 0 0 c 0,-5.7812 -0.35,-12.1875 -1.05,-19.2187 v 0 0 c 0,-5.082 -0.25,-8.1485 -0.75,-9.1953 v 0 0 c -1.05,-3.4922 -4.82,-6.2813 -11.31,-8.375 v 0 0 c -6,-2.0938 -13.57,-3.1407 -22.71,-3.1407 v 0 0 c -8.94,0 -16.84,1.0469 -23.68,3.1407 v 0 0 c -6.7,2.0937 -10.99,4.9843 -12.89,8.6718 v 0 0 c -2.15,4.0391 -3.47,22.7813 -3.97,56.2342 z m 373.28,100.946 v 0 0 c -0.15,13.16 -0.22,26.32 -0.22,39.48 v 0 0 c 0,21.887 0.24,43.598 0.74,65.133 v 0 0 c 1.1,32.949 3.13,51.894 6.07,56.828 v 0 0 c 3,4.738 15.22,8.402 36.65,10.992 v 0 0 c 21.93,2.641 45.74,4.238 71.42,4.785 v 0 0 c 8.04,0.153 15.86,0.227 23.46,0.227 v 0 0 c 17.73,0 34.14,-0.426 49.23,-1.274 v 0 0 c 22.33,-1.046 35.85,-2.988 40.54,-5.832 v 0 0 c 5.3,-2.941 8.75,-7.75 10.35,-14.429 v 0 0 c 1.54,-4.739 2.32,-9.821 2.32,-15.258 v 0 0 c 0,-1.395 -0.08,-2.891 -0.23,-4.484 v 0 0 c 0,-6.481 -0.97,-12.864 -2.92,-19.145 v 0 0 c -1.6,-5.434 -3.52,-9.195 -5.77,-11.289 v 0 0 c -2.65,-2.293 -9.77,-3.441 -21.36,-3.441 v 0 0 c -1.59,0 -3.17,0 -4.72,0 v 0 0 c -14.44,0.5 -29.82,1.023 -46.16,1.57 v 0 0 c -14.89,0.847 -28.58,1.273 -41.07,1.273 v 0 0 c -2.1,0 -4.12,0 -6.07,0 v 0 0 c -1.95,0 -3.8,0 -5.55,0 v 0 0 c -11.24,0 -18.78,-1.398 -22.63,-4.187 v 0 0 c -2.8,-2.246 -5.07,-5.91 -6.82,-10.992 v 0 0 c -1.45,-5.286 -2.17,-10.719 -2.17,-16.301 v 0 0 c 0,-5.434 0.72,-10.969 2.17,-16.602 v 0 0 c 1.55,-5.086 3.48,-8.949 5.77,-11.59 v 0 0 c 3.5,-3.488 9.3,-5.66 17.39,-6.507 v 0 0 c 3.85,-0.348 7.84,-0.524 11.99,-0.524 v 0 0 c 4.1,0 8.34,0.176 12.74,0.524 v 0 0 c 8.99,0.5 17.44,0.75 25.33,0.75 v 0 0 c 1.05,0 2.02,0 2.92,0 v 0 0 c 6.65,0 11.64,-1.047 14.99,-3.141 v 0 0 c 2.65,-1.594 4.5,-5.285 5.55,-11.066 v 0 0 c 1.19,-4.387 1.8,-9.024 1.8,-13.911 v 0 0 c 0,-1.593 -0.08,-3.265 -0.23,-5.007 v 0 0 c 0,-6.282 -0.97,-12.59 -2.92,-18.918 v 0 0 c -1.4,-5.633 -3.85,-9.5 -7.35,-11.59 v 0 0 c -3.2,-1.895 -8.91,-2.844 -17.16,-2.844 v 0 0 c -7.34,0.148 -15.51,0.398 -24.5,0.75 v 0 0 c -2.95,0.199 -5.93,0.297 -8.92,0.297 v 0 0 c -5.1,0 -10.29,-0.274 -15.59,-0.82 v 0 0 c -7.35,-0.5 -12.86,-2.594 -16.56,-6.282 v 0 0 c -1.75,-2.445 -3.15,-5.859 -4.2,-10.246 v 0 0 c -0.7,-5.633 -0.8,-10.719 -0.3,-15.254 v 0 0 c 0.35,-4.386 1.5,-9.648 3.45,-15.777 v 0 0 c 1.9,-5.086 4.27,-8.949 7.12,-11.59 v 0 0 c 2.8,-2.293 10.09,-3.441 21.88,-3.441 v 0 0 c 11.94,0 25.01,0.273 39.19,0.824 v 0 0 c 11.95,0.348 22.59,0.523 31.93,0.523 v 0 0 c 3.15,0 6.12,0 8.92,0 v 0 0 c 0.9,0 1.7,0 2.4,0 v 0 0 c 11.59,0 19.66,-1.222 24.2,-3.664 v 0 0 c 3.35,-1.597 6.07,-5.285 8.17,-11.0661 v 0 0 c 2.5,-5.2344 3.82,-11.1914 3.97,-17.875 v 0 0 c 0.2,-1.9414 0.3,-3.8633 0.3,-5.7578 v 0 0 c 0,-4.3867 -0.45,-8.8711 -1.35,-13.457 v 0 0 c -1.05,-6.1328 -3.15,-11.1914 -6.29,-15.1797 v 0 0 c -4.05,-5.086 -17.24,-8.6992 -39.57,-10.8438 v 0 0 c -17.73,-1.5429 -36.07,-2.3164 -55.01,-2.3164 v 0 0 c -5.09,0 -10.29,0.0742 -15.58,0.2227 v 0 0 c -24.78,0.5508 -47.69,1.8711 -68.73,3.9648 v 0 0 c -20.58,2.6406 -31.92,5.6328 -34.02,8.9727 v 0 0 c -1.95,3.4883 -3.87,20.8359 -5.77,52.0429 v 0 0 c -1.6,31.5077 -2.67,65.7537 -3.22,102.7427 z m 293.77,94.144 v 0 0 c 0.9,8.223 3.37,16.274 7.42,24.152 v 0 0 c 4.89,8.625 10.59,16.352 17.08,23.18 v 0 0 c 7.2,7.18 15.64,13.559 25.33,19.145 v 0 0 c 9.84,5.781 20.21,9.718 31.11,11.812 v 0 0 c 9.83,2.145 18.88,3.215 27.12,3.215 v 0 0 c 2.1,0 4.2,-0.098 6.3,-0.297 v 0 0 c 10.54,-0.351 19.58,-1.496 27.13,-3.441 v 0 0 c 7.19,-1.395 14.03,-3.563 20.53,-6.504 v 0 0 c 5.99,-2.492 10.39,-4.613 13.19,-6.356 v 0 0 c 3.2,-2.093 4.87,-6.382 5.02,-12.863 v 0 0 c 0.2,-1.394 0.3,-2.715 0.3,-3.965 v 0 0 c 0,-5.082 -0.8,-10.515 -2.4,-16.301 v 0 0 c -1.25,-6.628 -3.52,-12.933 -6.82,-18.918 v 0 0 c -2.64,-5.433 -5.74,-8.324 -9.29,-8.671 v 0 0 c -2.25,-0.153 -5.92,0.371 -11.02,1.57 v 0 0 c -5.64,1.941 -11.01,3.437 -16.11,4.484 v 0 0 c -5.79,1.598 -11.84,2.645 -18.13,3.141 v 0 0 c -1.95,0.351 -3.8,0.523 -5.55,0.523 v 0 0 c -4.05,0 -7.92,-0.695 -11.61,-2.093 v 0 0 c -9.65,-3.141 -16.04,-8.473 -19.19,-16 v 0 0 c -2.15,-5.633 -3.22,-10.645 -3.22,-15.032 v 0 0 c 0,-1.547 0.17,-3.117 0.52,-4.711 v 0 0 c 2.15,-10.367 9.09,-18.968 20.83,-25.796 v 0 0 c 10.4,-5.434 23.23,-12.961 38.52,-22.583 v 0 0 c 13.84,-8.574 26.21,-19.792 37.1,-33.648 v 0 0 c 11.09,-13.66 16.64,-33.027 16.64,-58.102 v 0 0 c 0,-15.406 -2.72,-28.64 -8.17,-39.7066 v 0 0 c -5.1,-10.6679 -12.22,-20.039 -21.36,-28.1171 v 0 0 c -8.94,-7.5274 -18.86,-13.4102 -29.75,-17.6446 v 0 0 c -10.39,-3.8398 -21.73,-6.6328 -34.03,-8.375 v 0 0 c -6.99,-0.3515 -13.31,-0.5234 -18.95,-0.5234 v 0 0 c -9.15,0.3476 -16.44,0.5234 -21.89,0.5234 v 0 0 c -2.59,0.1992 -6.27,0.4961 -11.02,0.8946 v 0 0 c -4.74,0.4492 -8.26,0.7734 -10.56,0.9726 v 0 0 c -6.15,0.8477 -12.12,1.8945 -17.91,3.1406 v 0 0 c -5.1,1.0469 -8.52,5.2618 -10.27,12.6368 v 0 0 c -0.9,4.8867 -1.35,10.121 -1.35,15.7031 v 0 0 c 0,2.4922 0.1,4.9609 0.3,7.4023 v 0 0 c 1.05,8.5781 2.72,16.1055 5.02,22.5863 v 0 0 c 2.6,6.828 5.75,10.242 9.45,10.242 v 0 0 c 3.49,0 7.61,-0.25 12.36,-0.746 v 0 0 c 5.65,-0.551 11.02,-1.074 16.11,-1.571 v 0 0 c 1.9,-0.199 4.8,-0.425 8.7,-0.675 v 0 0 c 3.85,-0.246 6.74,-0.473 8.69,-0.672 v 0 0 c 6.5,0 12.12,0.347 16.86,1.047 v 0 0 c 8.8,1.047 15.37,4.039 19.71,8.972 v 0 0 c 4.25,4.387 6.37,11.391 6.37,21.012 v 0 0 c 0,1.047 0,2.195 0,3.441 v 0 0 c -0.35,15.754 -6.67,27.043 -18.96,33.875 v 0 0 c -9.34,5.434 -22.53,12.883 -39.57,22.356 v 0 0 c -13.49,7.726 -25.95,18.594 -37.39,32.601 v 0 0 c -9.15,11.766 -13.72,28.766 -13.72,51 v 0 0 c 0,4.387 0.18,8.946 0.53,13.684" /></g></g></g></g></svg>